# xmcd
#
# Track frame offsets: 
#        150
#        8575
#        29665
#        51820
#        87762
#        105870
#        147245
#        159480
#        172620
#        177745
#        196047
#        208532
#        227090
#
# Disc length: 3301 seconds
#
# Revision: 27
# Processed by: cddbd v1.5.2PL0 Copyright (c) Steve Scherf et al.
# Submitted via: ExactAudioCopyFreeDBPlugin 1.0
#
DISCID=990ce30d
DTITLE=Stevie Ray Vaughan - Couldn't Stand the Weather
DYEAR=1984
DGENRE=Blues
TTITLE0=Scuttle Buttin'
TTITLE1=Couldn't Stand the Weather
TTITLE2=The Things (That) I Used to Do
TTITLE3=Voodoo Chile (Slight Return)
TTITLE4=Cold Shot
TTITLE5=Tin Pan Alley (aka "Roughest Place in Town")
TTITLE6=Honey Bee
TTITLE7=Stang's Swang
TTITLE8=SRV Speaks (bonus track)
TTITLE9=Hide Away (bonus track)
TTITLE10=Look at Little Sister (bonus track)
TTITLE11=Give Me Back My Wig (bonus track)
TTITLE12=Come On, Part III (bonus track)
EXTD=YEAR: 1984
EXTT0=
EXTT1=
EXTT2=
EXTT3=
EXTT4=
EXTT5=
EXTT6=
EXTT7=
EXTT8=
EXTT9=
EXTT10=
EXTT11=
EXTT12=
PLAYORDER=
